# xmcd
#
# Track frame offsets:
# 150
# 55022
# 92115
# 107093
# 142873
# 214467
#
# Disc length: 3354 seconds
#
#
# Revision: 0
# Processed by: cddbd v1.5.2PL0 Copyright (c) Steve Scherf et al.
# Submitted via: FreeRIP 2.943 
#
DISCID=500d1806
DTITLE=sean noonan's brewed by noon - time at the end of the day [d2]-trio live 2009
DYEAR=2009
DGENRE=Jazz
TTITLE0=morpheus
TTITLE1=pineapple
TTITLE2=bruised by noon
TTITLE3=fion
TTITLE4=story of jones
TTITLE5=great silkie
EXTD=
EXTT0=
EXTT1=
EXTT2=
EXTT3=
EXTT4=
EXTT5=
PLAYORDER=
